<svg xmlns="http://www.w3.org/2000/svg" version="1.1" x="0" y="0" width="14" height="14" viewBox="0 0 26.762 26.762" xml:space="preserve"><g fill="#202934"><path d="M26.727 12.677a13.317 13.317 0 0 0-2.279-6.805A13.413 13.413 0 0 0 16.6.41a13.31 13.31 0 0 0-3.219-.409c-1.438 0-2.822.235-4.121.657a13.423 13.423 0 0 0-7.409 5.971 13.217 13.217 0 0 0-1.742 5.132A13.532 13.532 0 0 0 0 13.381c0 2.961.979 5.688 2.613 7.908a13.427 13.427 0 0 0 6.517 4.769c1.338.449 2.764.703 4.251.703 2.01 0 3.909-.458 5.621-1.255a13.472 13.472 0 0 0 4.77-3.713 13.32 13.32 0 0 0 2.99-8.412c0-.237-.026-.47-.035-.704zm-2.717 0l-2.751 4.764 1.813 3.14a12.176 12.176 0 0 1-4.715 3.808l-1.383-2.391h-5.5l-1.691 2.928a12.144 12.144 0 0 1-6.393-4.744l2.112-3.656-2.75-4.764H1.413c.253-1.88.928-3.628 1.943-5.132h3.849l2.75-4.765-.034-.063a11.987 11.987 0 0 1 3.46-.511c.874 0 1.727.099 2.549.276l-.172.297 2.75 4.765h4.896a12.026 12.026 0 0 1 2.031 6.048H24.01z"/><path d="M10.631 8.456L7.88 13.22l2.751 4.763h5.5l2.751-4.763-2.751-4.764z"/></g></svg>