<?xml version="1.0" encoding="utf-8"?>
<!-- Generator: Adobe Illustrator 16.0.0, SVG Export Plug-In . SVG Version: 6.00 Build 0)  -->
<!DOCTYPE svg PUBLIC "-//W3C//DTD SVG 1.1//EN" "http://www.w3.org/Graphics/SVG/1.1/DTD/svg11.dtd">
<svg version="1.1" id="Layer_1" xmlns="http://www.w3.org/2000/svg" xmlns:xlink="http://www.w3.org/1999/xlink" x="0px" y="0px"
	 width="363px" height="356.707px" viewBox="69.5 75.5 363 356.707" enable-background="new 69.5 75.5 363 356.707"
	 xml:space="preserve">
<circle display="none" fill="#EFEFEF" cx="256" cy="256" r="256"/>
<path fill="#E0E0E0" d="M385.965,141.493c-32.31-37.759-80.285-61.726-133.885-61.726c-97.295,0-176.177,78.877-176.177,176.177
	c0,55.15,25.354,104.357,65.025,136.664c30.322,24.689,68.999,39.513,111.152,39.513c97.302,0,176.176-78.874,176.176-176.176
	C428.256,212.238,412.313,172.284,385.965,141.493z"/>
<path fill="#FFFFFF" d="M333.29,338.508c55.318-55.318,73.416-132.539,52.675-197.01c-32.31-37.763-80.285-61.73-133.885-61.73
	c-97.295,0-176.177,78.877-176.177,176.177c0,55.15,25.354,104.357,65.025,136.664C204.436,411.04,279.3,392.501,333.29,338.508z"/>
<g>
	<path fill="#3A3A39" d="M155.981,167.381c0,0,23.6-36.671,55.893-45.383c0,0,28.563-1.868,60.239,23.632
		c0,0-11.801,59.042-15.523,64.014c0,0-68.938,16.162-72.665,18.028C183.929,227.671,162.19,197.213,155.981,167.381z"/>
	<path fill="#3A3A39" d="M338.572,102.728v34.19c0,0,39.125,29.214,47.816,55.323l31.049,2.486
		C417.435,194.727,399.435,135.681,338.572,102.728z"/>
	<path fill="#3A3A39" d="M308.756,265.588l63.352-8.08c0,0,14.904,26.105,14.904,64.021c0,0-27.944,37.926-52.17,47.252
		l-50.921-30.467L308.756,265.588z"/>
	<path fill="#3A3A39" d="M159.085,297.288c0,0,27.945,39.153,49.062,55.938l-18.004,42.89c0,0-37.889-4.35-56.511-19.893
		c0,0-21.744-26.104-21.744-64.018L159.085,297.288z"/>
	<path fill="#3A3A39" d="M74.622,251.292h10.563c0,0,3.1-42.897,22.35-69.625v-27.973C107.534,153.697,79.589,186.65,74.622,251.292
		z"/>
	<path fill="#3A3A39" d="M241.808,431.894l0.493-4.075c0,0,56.516-7.462,75.773-18.651l7.777,6.812
		C325.852,415.979,290.986,434.845,241.808,431.894z"/>
	<path fill="#3A3A39" d="M193.243,89.057l17.391,0.619l15.85-8.198C226.479,81.477,208.77,83.462,193.243,89.057z"/>
	<path fill="#3A3A39" d="M270.5,147.172l-0.372-1.827c2.082-0.42,51.181-10.134,70.316-9.576l-0.056,1.868
		C321.441,137.019,271.002,147.067,270.5,147.172z"/>
	<path fill="#3A3A39" d="M372.557,258.983l-1.406-1.22c12.063-13.898,14.653-65.579,14.677-66.101l1.864,0.093
		C387.586,193.907,385.047,244.613,372.557,258.983z"/>
	<polygon fill="#3A3A39" points="414.366,324.773 385.997,322.476 386.122,320.613 415.207,322.67 	"/>
	
		<rect x="243" y="236.937" transform="matrix(0.677 0.736 -0.736 0.677 266.4503 -131.3837)" fill="#3A3A39" width="79.814" height="1.863"/>
	<path fill="#3A3A39" d="M318.285,411.439l-1.387-1.245c5.393-5.999,17.616-42.662,17.737-43.035l1.766,0.595
		C335.904,369.282,323.939,405.158,318.285,411.439z"/>
	<path fill="#3A3A39" d="M205.698,354.867l-0.255-1.84c0.655-0.097,66.124-9.074,78.874-15.756l0.874,1.648
		C272.149,345.752,208.402,354.504,205.698,354.867z"/>
	<path fill="#3A3A39" d="M159.655,299.414l-1.794-0.496c0.711-2.56,17.454-62.842,25.556-72.831l1.452,1.171
		C177.009,236.949,159.825,298.797,159.655,299.414z"/>
	<path fill="#3A3A39" d="M243.526,429.444c-30.957-8.064-54.705-33.583-54.947-33.843l1.371-1.266
		c0.239,0.258,23.627,25.382,54.046,33.301L243.526,429.444z"/>
	<path fill="#3A3A39" d="M111.993,313.357c-29.755-29.175-28.939-63.074-28.923-63.404l1.864,0.061
		c-0.016,0.339-0.784,33.438,28.365,62.01L111.993,313.357z"/>
	<path fill="#3A3A39" d="M106.451,183.364l-1.12-1.487c0.223-0.162,22.282-16.545,53.932-15.341l-0.077,1.864
		C128.21,167.117,106.669,183.202,106.451,183.364z"/>
	
		<rect x="194.008" y="104.631" transform="matrix(0.0402 0.9992 -0.9992 0.0402 308.3623 -109.8993)" fill="#3A3A39" width="34.756" height="1.859"/>
	
		<rect x="130.505" y="373.655" transform="matrix(0.668 0.7442 -0.7442 0.668 325.0876 27.7589)" fill="#3A3A39" width="1.863" height="9.051"/>
	<path fill="#3A3A39" d="M241.82,431.789l-0.012,0.104c49.179,2.946,84.043-15.918,84.043-15.918l-0.04-0.037
		c-22.436,10.361-47.399,16.178-73.732,16.178C248.635,432.12,245.22,431.986,241.82,431.789z"/>
	<path fill="#3A3A39" d="M211.619,88.179l0.04,0.962l14.819-7.664c0,0-17.709,1.985-33.241,7.58l16.578,0.59l-0.056-1.39
		L211.619,88.179z"/>
	<path fill="#3A3A39" d="M270.5,147.172c0.045-0.012,0.525-0.105,1.357-0.267c0.166-0.809,0.256-1.273,0.256-1.273
		c-0.239-0.193-0.47-0.348-0.707-0.537c-0.663,0.13-1.12,0.223-1.278,0.255L270.5,147.172z"/>
	<path fill="#3A3A39" d="M339.486,137.617c0.3,0.008,0.611,0.004,0.902,0.016l0.056-1.868c-0.595-0.016-1.221-0.024-1.871-0.024
		v1.176C338.572,136.917,338.948,137.208,339.486,137.617z"/>
	<path fill="#3A3A39" d="M387.663,192.341c0.012-0.271,0.023-0.489,0.028-0.586l-1.524-0.077c0.064,0.186,0.162,0.372,0.223,0.558
		L387.663,192.341z"/>
	<path fill="#3A3A39" d="M372.557,258.983c0.069-0.081,0.13-0.179,0.202-0.255c-0.416-0.801-0.651-1.221-0.651-1.221l-0.841,0.105
		c-0.04,0.049-0.076,0.104-0.113,0.148L372.557,258.983z"/>
	<path fill="#3A3A39" d="M414.302,324.769l0.065,0.005l0.841-2.106l-0.061-0.005C414.859,323.365,414.593,324.073,414.302,324.769z"
		/>
	<path fill="#3A3A39" d="M257.181,208.544l-0.623-0.683l-1.371,1.265l0.639,0.699c0.497-0.117,0.764-0.182,0.764-0.182
		C256.769,209.404,256.971,209.009,257.181,208.544z"/>
	<polygon fill="#3A3A39" points="310.584,266.604 309.557,265.483 308.756,265.588 308.312,266.882 309.218,267.865 	"/>
	<path fill="#3A3A39" d="M284.316,337.271c-0.016,0.008-0.036,0.017-0.053,0.024l-0.348,1.018l1.127,0.676
		c0.045-0.021,0.098-0.045,0.142-0.069L284.316,337.271z"/>
	<path fill="#3A3A39" d="M207.557,352.729c-1.281,0.182-2.045,0.287-2.11,0.299l0.255,1.84c0.223-0.031,0.89-0.121,1.871-0.258
		l0.582-1.383C207.954,353.072,207.747,352.887,207.557,352.729z"/>
	<path fill="#3A3A39" d="M184.812,227.341c0.021-0.024,0.04-0.057,0.061-0.081l-1.452-1.172c-0.093,0.117-0.198,0.279-0.295,0.416
		c0.498,0.732,0.809,1.168,0.809,1.168C184.091,227.587,184.415,227.474,184.812,227.341z"/>
	<path fill="#3A3A39" d="M158.237,297.56c-0.198,0.699-0.332,1.181-0.381,1.358l1.794,0.496c0.012-0.039,0.109-0.393,0.267-0.961
		c-0.501-0.691-0.836-1.16-0.836-1.16L158.237,297.56z"/>
	<path fill="#3A3A39" d="M190.603,395.012c-0.372-0.381-0.634-0.656-0.655-0.68l-1.371,1.266c0.016,0.017,0.133,0.143,0.339,0.36
		c0.739,0.098,1.225,0.158,1.225,0.158L190.603,395.012z"/>
	<path fill="#3A3A39" d="M113.294,312.023c-0.069-0.07-0.121-0.134-0.19-0.203l-1.221,0.389c0,0.364,0.037,0.711,0.04,1.075
		c0.024,0.024,0.044,0.054,0.069,0.077L113.294,312.023z"/>
	<path fill="#3A3A39" d="M84.933,250.014l-1.864-0.061c-0.004,0.037-0.007,0.542,0.012,1.338h1.863
		C84.925,250.539,84.929,250.054,84.933,250.014z"/>
	<path fill="#3A3A39" d="M156.22,168.375c0.986,0.007,1.957-0.017,2.963,0.023l0.077-1.863c-0.922-0.037-1.803-0.004-2.705-0.012
		c-0.339,0.502-0.578,0.857-0.578,0.857C156.05,167.712,156.146,168.043,156.22,168.375z"/>
	<path fill="#3A3A39" d="M106.406,183.307c0.376-0.55,0.744-1.099,1.127-1.638v-1.281c-1.395,0.89-2.166,1.455-2.208,1.487
		L106.406,183.307z"/>
	<path fill="#3A3A39" d="M213.018,122.907l-0.037-0.934c-0.699,0.007-1.108,0.028-1.108,0.028c-0.255,0.069-0.493,0.174-0.744,0.247
		l0.028,0.744L213.018,122.907z"/>
	<polygon fill="#3A3A39" points="211.66,89.141 211.619,88.179 209.76,88.256 209.817,89.647 210.629,89.675 	"/>
	<path fill="#3A3A39" d="M134.145,374.46l-1.115,1.002c0.351,0.458,0.598,0.761,0.598,0.761c0.23,0.193,0.493,0.363,0.732,0.55
		l1.031-0.926L134.145,374.46z"/>
</g>
<g>
	<path fill="#2A2B2A" d="M417.284,194.715c-7.288-19.621-17.96-37.605-31.319-53.221c5.303,16.484,8.028,33.802,8.282,51.374
		L417.284,194.715z"/>
	<path fill="#2A2B2A" d="M378.377,271.906c-10.189,23.951-25.191,46.705-45.087,66.602c-6.33,6.33-12.972,12.13-19.824,17.482
		l20.753,12.418c-2.073,6.137-11.827,34.482-16.836,41.14c-17.879,9.88-64.365,16.775-73.493,18.058
		c-21.999-5.761-40.257-20.463-48.767-28.243c-0.881,0.021-1.766,0.076-2.647,0.085c7.793,7.329,26.63,23.158,49.684,29.586
		l-0.335,2.757c3.4,0.197,6.815,0.331,10.26,0.331c26.335,0,51.297-5.816,73.732-16.177l-6.586-5.766
		c5.72-8.399,15.895-38.571,17.052-42.048c21.683-9.281,45.742-40.023,49.999-45.629l28.025,2.271
		c0.29-0.695,0.558-1.406,0.845-2.105l-28.158-1.988C386.866,300.098,382.399,283.076,378.377,271.906z"/>
</g>
</svg>
