
<svg version="1.1" id="Layer_1" xmlns="http://www.w3.org/2000/svg" xmlns:xlink="http://www.w3.org/1999/xlink" x="0px" y="0px"
	 viewBox="0 0 512 512" enable-background="new 0 0 512 512" xml:space="preserve">
<g>
	<g>
		<path fill="#7C8A93" d="M505.756,230.267L313.867,38.378c-13.432-13.432-36.396-3.919-36.396,15.076v85.381
			C155.35,143.912,47.635,227.063,13.499,345.398C2.1,384.9-0.745,417.408,0.154,452.396c0.113,4.107,0.142,5.293,0.142,6.155
			c0,21.665,28.563,29.521,39.643,10.905c23.753-39.91,50.731-70.75,80.286-93.545c53.431-41.209,109.059-53.144,157.244-48.324
			v109.644c0,18.995,22.966,28.508,36.397,15.076l191.889-191.889C514.082,252.093,514.082,238.593,505.756,230.267z
			 M320.111,385.758v-76.452c0-9.768-6.637-18.286-16.107-20.675c-2.595-0.654-6.904-1.512-12.751-2.329
			c-60.395-8.45-130.557,4.546-197.069,55.844c-16.362,12.618-31.943,27.283-46.661,44.079l0.326-1.707
			c1.7-8.754,3.877-17.793,6.62-27.299c30.433-105.497,129.959-178.306,240.172-175.93c1.863,0.033,2.551,0.048,3.414,0.078
			c12.056,0.416,22.056-9.245,22.056-21.309v-55.131l140.415,140.416L320.111,385.758z"/>
	</g>
</g>
</svg>
