
<svg version="1.1" id="Capa_1" xmlns="http://www.w3.org/2000/svg" xmlns:xlink="http://www.w3.org/1999/xlink" x="0px" y="0px"
	  viewBox="0 0 512 512" enable-background="new 0 0 512 512" xml:space="preserve">
<g>
	<g>
		<path fill="#4F5A66" d="M326.913,313.301c-3.164-1.034-23.163-10.049-10.667-48.037h-0.179
			c32.576-33.551,57.471-87.539,57.471-140.691C373.538,42.844,319.191,0,256.03,0c-63.202,0-117.249,42.824-117.249,124.572
			c0,53.371,24.755,107.578,57.53,141.049c12.776,33.512-10.069,45.949-14.845,47.68C115.319,337.24,37.71,380.841,37.71,423.884
			c0,11.622,0,4.577,0,16.139C37.71,498.667,151.417,512,256.646,512c105.389,0,217.663-13.333,217.663-71.978
			c0-11.542,0-4.517,0-16.139C474.31,379.547,396.323,336.285,326.913,313.301z"/>
	</g>
</g>
</svg>
